<?xml version="1.0" standalone="no"?>
<!DOCTYPE svg PUBLIC "-//W3C//DTD SVG 20010904//EN"
 "http://www.w3.org/TR/2001/REC-SVG-20010904/DTD/svg10.dtd">
<svg version="1.0" xmlns="http://www.w3.org/2000/svg"
 width="128.000000pt" height="128.000000pt" viewBox="0 0 128.000000 128.000000"
 preserveAspectRatio="xMidYMid meet">

<g transform="translate(0.000000,128.000000) scale(0.100000,-0.100000)"
fill="#000000" stroke="none">
<path d="M212 1100 c-18 -11 -37 -32 -43 -47 -6 -16 -9 -176 -7 -429 l3 -404
28 -27 27 -28 229 -3 228 -3 -18 53 -18 53 -188 5 -188 5 0 365 0 365 372 3
373 2 2 -186 3 -185 53 -18 52 -18 0 214 c0 172 -3 220 -15 243 -31 59 -36 60
-467 60 -375 0 -394 -1 -426 -20z"/>
<path d="M374 896 c-3 -8 -4 -31 -2 -52 l3 -39 265 0 265 0 0 50 0 50 -263 3
c-219 2 -263 0 -268 -12z"/>
<path d="M370 640 l0 -51 213 4 c187 3 219 6 267 24 45 18 56 26 58 47 l3 26
-270 0 -271 0 0 -50z"/>
<path d="M374 466 c-3 -8 -4 -31 -2 -52 l3 -39 130 0 130 0 3 53 3 52 -131 0
c-102 0 -132 -3 -136 -14z"/>
<path d="M1003 388 l-93 -93 -43 43 -43 42 -28 -29 c-20 -20 -25 -34 -20 -44
12 -21 124 -137 132 -137 4 0 62 55 129 122 l121 121 -26 34 c-15 18 -29 33
-32 33 -3 0 -47 -42 -97 -92z"/>
</g>
</svg>
